<svg xmlns="http://www.w3.org/2000/svg" width="512" height="512" viewBox="0 0 512 512">
  <defs>
    <linearGradient id="g" x1="0" y1="0" x2="1" y2="1">
      <stop offset="0" stop-color="#7c5cff"/>
      <stop offset="1" stop-color="#22c55e"/>
    </linearGradient>
    <filter id="s" x="-20%" y="-20%" width="140%" height="140%">
      <feDropShadow dx="0" dy="14" stdDeviation="18" flood-color="#000" flood-opacity=".45"/>
    </filter>
  </defs>
  <rect x="56" y="56" width="400" height="400" rx="96" fill="rgba(255,255,255,.06)" stroke="rgba(255,255,255,.12)"/>
  <rect x="96" y="120" width="320" height="272" rx="72" fill="rgba(0,0,0,.20)" stroke="rgba(255,255,255,.10)"/>
  <g filter="url(#s)">
    <path fill="url(#g)" d="M162 268c0-18 14-32 32-32h28v-22c0-18 14-32 32-32h4c18 0 32 14 32 32v22h28c18 0 32 14 32 32v4c0 18-14 32-32 32h-28v22c0 18-14 32-32 32h-4c-18 0-32-14-32-32v-22h-28c-18 0-32-14-32-32v-4z"/>
  </g>
  <text x="256" y="438" font-family="-apple-system, BlinkMacSystemFont, Arial" font-size="44" font-weight="800" text-anchor="middle" fill="rgba(255,255,255,.85)">LB</text>
</svg>
