<svg xmlns="http://www.w3.org/2000/svg" width="512" height="512" viewBox="0 0 512 512">
  <defs>
    <linearGradient id="g" x1="0" y1="0" x2="1" y2="1">
      <stop offset="0" stop-color="#7c5cff"/>
      <stop offset="1" stop-color="#22c55e"/>
    </linearGradient>
    <radialGradient id="glow" cx="35%" cy="25%" r="70%">
      <stop offset="0" stop-color="rgba(255,255,255,.18)"/>
      <stop offset="1" stop-color="rgba(255,255,255,0)"/>
    </radialGradient>
  </defs>
  <rect x="52" y="52" width="408" height="408" rx="108" fill="rgba(255,255,255,.06)" stroke="rgba(255,255,255,.12)"/>
  <rect x="88" y="88" width="336" height="336" rx="92" fill="rgba(0,0,0,.18)" stroke="rgba(255,255,255,.10)"/>
  <circle cx="200" cy="170" r="170" fill="url(#glow)"/>
  <g>
    <path fill="url(#g)" d="M156 252c0-24 20-44 44-44h22v-22c0-24 20-44 44-44h2c24 0 44 20 44 44v22h22c24 0 44 20 44 44v8c0 24-20 44-44 44h-22v22c0 24-20 44-44 44h-2c-24 0-44-20-44-44v-22h-22c-24 0-44-20-44-44v-8z"/>
    <path fill="rgba(255,255,255,.18)" d="M170 252c0-16 14-30 30-30h22v-22c0-16 14-30 30-30h2c16 0 30 14 30 30v22h22c16 0 30 14 30 30v8c0 16-14 30-30 30h-22v22c0 16-14 30-30 30h-2c-16 0-30-14-30-30v-22h-22c-16 0-30-14-30-30v-8z"/>
  </g>
  <text x="256" y="404" font-family="-apple-system,BlinkMacSystemFont,Arial" font-size="60" font-weight="900" text-anchor="middle" fill="rgba(255,255,255,.92)">LB</text>
</svg>
